<svg xmlns="http://www.w3.org/2000/svg" xmlns:xlink="http://www.w3.org/1999/xlink" version="1.1" x="0px" y="0px" viewBox="0 0 100 100" enable-background="new 0 0 100 100" xml:space="preserve"><path d="M11.8,83.6c0,0.2,0,0.2,0,0.2c0,1.4,1,2.2,2.4,2.2c71,0,71,0,71,0c1.2,0,2.4-0.8,2.4-2.2c0-0.2,0-0.2,0-0.2  c0-1.2-1.2-2.4-2.4-2.4c-71,0-71,0-71,0C12.8,81.2,11.8,82.4,11.8,83.6"></path><path d="M19.5,36.8c0,0.8,0.8,1.6,1.8,1.6c56.8,0,56.8,0,56.8,0c1,0,1.8-0.8,1.8-1.6c0-0.8-0.8-1.4-1.8-1.4c-56.8,0-56.8,0-56.8,0  C20.3,35.4,19.5,36,19.5,36.8"></path><path d="M92.1,88.6c-84.7,0-84.7,0-84.7,0C6,88.6,5,89.8,5,91s0,1.2,0,1.2c0,1.4,1,2.4,2.4,2.4c84.7,0,84.7,0,84.7,0  c1.4,0,2.4-1,2.4-2.4c0-1.2,0-1.2,0-1.2C94.5,89.8,93.5,88.6,92.1,88.6"></path><path d="M26.3,48.8c0-0.6,0.6-1.2,1.4-1.2c0.6,0,1.2,0.6,1.2,1.2c0,21.9,0,21.9,0,21.9c0,0.8-0.6,1.2-1.2,1.2  c-0.8,0-1.4-0.4-1.4-1.2 M20.7,74.1c-1.2,0-2.4,1-2.4,2.2s1.2,2.2,2.4,2.2c12.2,0,12.2,0,12.2,0c1.2,0,2.4-1,2.4-2.2  s-1.2-2.2-2.4-2.2c-1,0-1,0-1,0c0-28.7,0-28.7,0-28.7c1,0,1,0,1,0c1.2,0,2.4-1,2.4-2.2S34.1,41,32.9,41c-12.2,0-12.2,0-12.2,0  c-1.2,0-2.4,1-2.4,2.2s1.2,2.2,2.4,2.2c1,0,1,0,1,0c0,28.7,0,28.7,0,28.7H20.7z"></path><path d="M51.8,70.7c0,0.8-0.6,1.2-1.2,1.2s-1.2-0.4-1.2-1.2c0-21.9,0-21.9,0-21.9c0-0.6,0.6-1.2,1.2-1.2s1.2,0.6,1.2,1.2 M55.8,45.4  c1.4,0,2.6-1,2.6-2.2S57.2,41,55.8,41c-12,0-12,0-12,0c-1.4,0-2.4,1-2.4,2.2s1,2.2,2.4,2.2c1,0,1,0,1,0c0,28.7,0,28.7,0,28.7  c-1,0-1,0-1,0c-1.4,0-2.4,1-2.4,2.2s1,2.2,2.4,2.2c12,0,12,0,12,0c1.4,0,2.6-1,2.6-2.2s-1.2-2.2-2.6-2.2c-0.8,0-0.8,0-0.8,0  c0-28.7,0-28.7,0-28.7H55.8z"></path><path d="M74.6,70.7c0,0.8-0.6,1.2-1.2,1.2c-0.6,0-1.2-0.4-1.2-1.2c0-21.9,0-21.9,0-21.9c0-0.6,0.6-1.2,1.2-1.2  c0.6,0,1.2,0.6,1.2,1.2 M78.8,45.4c1.2,0,2.4-1,2.4-2.2S80,41,78.8,41c-12.2,0-12.2,0-12.2,0c-1.4,0-2.4,1-2.4,2.2s1,2.2,2.4,2.2  c1,0,1,0,1,0c0,28.7,0,28.7,0,28.7c-1,0-1,0-1,0c-1.4,0-2.4,1-2.4,2.2s1,2.2,2.4,2.2c12.2,0,12.2,0,12.2,0c1.2,0,2.4-1,2.4-2.2  s-1.2-2.2-2.4-2.2c-1,0-1,0-1,0c0-28.7,0-28.7,0-28.7H78.8z"></path><path d="M11.6,35.8c0.8,1.2,2.4,1.2,3.6,0.6c32.5-22.3,32.5-22.3,32.5-22.3c1.2-0.6,3-0.6,4,0c32.5,22.3,32.5,22.3,32.5,22.3  c1.2,0.6,2.8,0.6,3.6-0.6c0.8-0.8,0.8-0.8,0.8-0.8c0.8-1,0.6-2.4-0.6-3.2C51.8,7.3,51.8,7.3,51.8,7.3c-1-0.8-2-1.4-2-1.4l0,0  c0,0-1,0.6-2,1.4C11.4,31.8,11.4,31.8,11.4,31.8C10.2,32.6,10,34,10.8,35"></path><path d="M72.2,33.2c1.2,0,1.4-0.6,0.4-1.4c-20.9-14-20.9-14-20.9-14c-1.2-0.6-3-0.6-4,0c-20.9,14-20.9,14-20.9,14  c-1.2,0.8-0.8,1.4,0.4,1.4"></path></svg>